<svg xmlns="http://www.w3.org/2000/svg" xmlns:xlink="http://www.w3.org/1999/xlink" width="64" zoomAndPan="magnify" viewBox="0 0 48 48" height="64" preserveAspectRatio="xMidYMid meet" version="1.0"><defs><g/><clipPath id="bdb9b3a119"><path d="M 12 2.792969 L 38 2.792969 L 38 11 L 12 11 Z M 12 2.792969 " clip-rule="nonzero"/></clipPath><clipPath id="93a14b064a"><path d="M 19 2.792969 L 38 2.792969 L 38 4 L 19 4 Z M 19 2.792969 " clip-rule="nonzero"/></clipPath><clipPath id="a6bfcacdf2"><path d="M 12 11 L 38.363281 11 L 38.363281 20 L 12 20 Z M 12 11 " clip-rule="nonzero"/></clipPath><clipPath id="34659631b9"><path d="M 9.710938 19 L 38.363281 19 L 38.363281 27.039062 L 9.710938 27.039062 Z M 9.710938 19 " clip-rule="nonzero"/></clipPath><clipPath id="77ec03cd36"><path d="M 32 19 L 38.363281 19 L 38.363281 21 L 32 21 Z M 32 19 " clip-rule="nonzero"/></clipPath><clipPath id="cdc2d4b704"><path d="M 11 20 L 38.363281 20 L 38.363281 27 L 11 27 Z M 11 20 " clip-rule="nonzero"/></clipPath><clipPath id="a203a423e6"><path d="M 0.0742188 2 L 4 2 L 4 8 L 0.0742188 8 Z M 0.0742188 2 " clip-rule="nonzero"/></clipPath><clipPath id="72c7735482"><path d="M 36 2 L 41.6875 2 L 41.6875 8 L 36 8 Z M 36 2 " clip-rule="nonzero"/></clipPath><clipPath id="9ef1922807"><rect x="0" width="42" y="0" height="12"/></clipPath><clipPath id="c1f46cedff"><path d="M 0.0742188 0.261719 L 3 0.261719 L 3 4 L 0.0742188 4 Z M 0.0742188 0.261719 " clip-rule="nonzero"/></clipPath><clipPath id="c230c9780c"><path d="M 5 0.261719 L 9 0.261719 L 9 4 L 5 4 Z M 5 0.261719 " clip-rule="nonzero"/></clipPath><clipPath id="ffb0a9ca92"><path d="M 10 0.261719 L 14 0.261719 L 14 4 L 10 4 Z M 10 0.261719 " clip-rule="nonzero"/></clipPath><clipPath id="6b2e1db521"><path d="M 16 0.261719 L 19 0.261719 L 19 4 L 16 4 Z M 16 0.261719 " clip-rule="nonzero"/></clipPath><clipPath id="3ca5b87d3e"><path d="M 23 0.261719 L 27 0.261719 L 27 4 L 23 4 Z M 23 0.261719 " clip-rule="nonzero"/></clipPath><clipPath id="5363193c52"><path d="M 28 0.261719 L 31 0.261719 L 31 4 L 28 4 Z M 28 0.261719 " clip-rule="nonzero"/></clipPath><clipPath id="48fec70a33"><path d="M 33 0.261719 L 37 0.261719 L 37 4 L 33 4 Z M 33 0.261719 " clip-rule="nonzero"/></clipPath><clipPath id="19a32885ea"><path d="M 39 0.261719 L 42 0.261719 L 42 4 L 39 4 Z M 39 0.261719 " clip-rule="nonzero"/></clipPath><clipPath id="1f5781be9d"><rect x="0" width="44" y="0" height="5"/></clipPath></defs><g clip-path="url(#bdb9b3a119)"><path fill="#ff751f" d="M 15.34375 2.8125 C 14.242188 2.949219 13.324219 3.558594 12.730469 4.554688 C 12.375 5.148438 12.195312 5.78125 12.171875 6.5 C 12.152344 7.160156 12.269531 7.761719 12.523438 8.339844 C 12.917969 9.234375 13.644531 9.925781 14.53125 10.253906 C 14.839844 10.371094 15.15625 10.433594 15.539062 10.453125 C 15.890625 10.472656 37.050781 10.472656 37.152344 10.453125 C 37.332031 10.417969 37.429688 10.242188 37.363281 10.078125 C 37.332031 10.007812 37.304688 9.976562 37.230469 9.9375 L 37.171875 9.90625 L 26.238281 9.898438 L 15.308594 9.894531 L 15.125 9.851562 C 14.546875 9.722656 14.0625 9.453125 13.660156 9.039062 C 13.125 8.488281 12.8125 7.796875 12.734375 6.976562 C 12.710938 6.757812 12.726562 6.289062 12.757812 6.082031 C 12.972656 4.722656 13.925781 3.652344 15.148438 3.40625 C 15.386719 3.355469 15.628906 3.34375 16.449219 3.34375 C 17.210938 3.34375 17.230469 3.34375 17.292969 3.3125 C 17.445312 3.238281 17.492188 3.027344 17.378906 2.898438 C 17.285156 2.792969 17.34375 2.796875 16.378906 2.796875 C 15.710938 2.792969 15.472656 2.796875 15.34375 2.8125 Z M 15.34375 2.8125 " fill-opacity="1" fill-rule="nonzero"/></g><g clip-path="url(#93a14b064a)"><path fill="#ff751f" d="M 19.296875 2.804688 C 19.230469 2.820312 19.183594 2.855469 19.136719 2.917969 C 19.101562 2.964844 19.09375 2.984375 19.09375 3.066406 C 19.09375 3.1875 19.140625 3.265625 19.234375 3.3125 L 19.300781 3.34375 L 28.40625 3.34375 C 37.265625 3.34375 37.507812 3.34375 37.566406 3.316406 C 37.628906 3.289062 37.691406 3.21875 37.710938 3.15625 C 37.75 3.035156 37.695312 2.894531 37.585938 2.835938 L 37.523438 2.796875 L 28.433594 2.796875 C 23.433594 2.796875 19.320312 2.796875 19.296875 2.804688 Z M 19.296875 2.804688 " fill-opacity="1" fill-rule="nonzero"/></g><path fill="#ff751f" d="M 15.8125 3.625 C 15.339844 3.683594 14.824219 3.945312 14.445312 4.320312 C 13.820312 4.9375 13.496094 5.800781 13.527344 6.753906 C 13.542969 7.277344 13.644531 7.6875 13.855469 8.132812 C 14.234375 8.917969 14.867188 9.4375 15.664062 9.613281 L 15.816406 9.644531 L 37.21875 9.644531 L 37.273438 9.605469 C 37.375 9.527344 37.410156 9.425781 37.382812 9.308594 C 37.367188 9.246094 37.335938 9.207031 37.136719 9.003906 C 36.753906 8.605469 36.519531 8.289062 36.328125 7.90625 C 36.097656 7.441406 36 7.003906 36.019531 6.535156 C 36.039062 6.09375 36.132812 5.742188 36.351562 5.308594 C 36.546875 4.921875 36.824219 4.546875 37.148438 4.226562 C 37.257812 4.125 37.351562 4.019531 37.367188 3.996094 C 37.378906 3.964844 37.386719 3.925781 37.382812 3.863281 C 37.375 3.75 37.324219 3.675781 37.234375 3.632812 C 37.175781 3.609375 36.894531 3.605469 26.546875 3.609375 C 20.214844 3.609375 15.875 3.617188 15.8125 3.625 Z M 36.40625 4.222656 C 36.175781 4.507812 36.003906 4.765625 35.855469 5.0625 C 35.484375 5.804688 35.378906 6.542969 35.527344 7.292969 C 35.636719 7.828125 35.945312 8.453125 36.339844 8.941406 L 36.464844 9.097656 L 26.15625 9.097656 L 15.847656 9.089844 L 15.679688 9.046875 C 14.820312 8.8125 14.210938 8.011719 14.089844 6.964844 C 14.070312 6.777344 14.074219 6.46875 14.097656 6.257812 C 14.214844 5.277344 14.835938 4.460938 15.644531 4.226562 C 15.714844 4.207031 15.8125 4.183594 15.859375 4.175781 C 15.910156 4.167969 20.480469 4.164062 26.203125 4.160156 L 36.453125 4.160156 Z M 36.40625 4.222656 " fill-opacity="1" fill-rule="nonzero"/><path fill="#ff751f" d="M 12.785156 11.101562 C 12.679688 11.15625 12.640625 11.21875 12.640625 11.34375 C 12.640625 11.429688 12.644531 11.449219 12.6875 11.5 C 12.710938 11.527344 12.757812 11.566406 12.792969 11.585938 L 12.859375 11.621094 L 16.703125 11.621094 L 16.769531 11.589844 C 16.953125 11.5 16.96875 11.230469 16.796875 11.113281 L 16.734375 11.074219 L 12.859375 11.066406 Z M 12.785156 11.101562 " fill-opacity="1" fill-rule="nonzero"/><g clip-path="url(#a6bfcacdf2)"><path fill="#ff751f" d="M 19.488281 11.09375 C 19.28125 11.1875 19.269531 11.476562 19.472656 11.585938 C 19.515625 11.609375 20.089844 11.613281 27.238281 11.621094 L 34.957031 11.628906 L 35.125 11.660156 C 36.109375 11.851562 36.9375 12.585938 37.359375 13.636719 C 37.808594 14.753906 37.710938 16.125 37.109375 17.140625 C 36.660156 17.894531 36.007812 18.382812 35.1875 18.570312 L 35.046875 18.605469 L 24.113281 18.613281 L 13.179688 18.617188 L 13.113281 18.660156 C 13.035156 18.703125 13.003906 18.746094 12.980469 18.835938 C 12.949219 18.957031 13.007812 19.082031 13.128906 19.140625 L 13.195312 19.171875 L 23.859375 19.175781 C 31.285156 19.179688 34.601562 19.175781 34.789062 19.164062 C 35.320312 19.136719 35.691406 19.039062 36.136719 18.8125 C 36.804688 18.472656 37.355469 17.902344 37.71875 17.171875 C 38.042969 16.523438 38.1875 15.878906 38.1875 15.121094 C 38.1875 14.503906 38.097656 14.015625 37.882812 13.46875 C 37.664062 12.914062 37.382812 12.476562 36.976562 12.070312 C 36.675781 11.765625 36.425781 11.582031 36.058594 11.398438 C 35.734375 11.234375 35.34375 11.121094 34.972656 11.082031 C 34.890625 11.070312 32.140625 11.066406 27.195312 11.066406 C 19.804688 11.066406 19.542969 11.066406 19.488281 11.09375 Z M 19.488281 11.09375 " fill-opacity="1" fill-rule="nonzero"/></g><path fill="#ff751f" d="M 13.375 11.878906 C 13.246094 11.921875 13.171875 12.015625 13.171875 12.140625 C 13.171875 12.179688 13.179688 12.234375 13.1875 12.253906 C 13.195312 12.277344 13.269531 12.363281 13.347656 12.445312 C 13.917969 13.042969 14.328125 13.792969 14.46875 14.5 C 14.519531 14.761719 14.53125 14.914062 14.523438 15.222656 C 14.515625 15.550781 14.488281 15.71875 14.402344 16.015625 C 14.238281 16.59375 13.875 17.210938 13.386719 17.742188 C 13.203125 17.941406 13.171875 17.988281 13.171875 18.082031 C 13.171875 18.214844 13.242188 18.316406 13.359375 18.347656 C 13.398438 18.359375 16.683594 18.363281 23.996094 18.359375 L 34.582031 18.355469 L 34.710938 18.328125 C 35.203125 18.210938 35.546875 18.019531 35.90625 17.65625 C 36.117188 17.445312 36.234375 17.292969 36.382812 17.035156 C 36.753906 16.398438 36.925781 15.574219 36.859375 14.789062 C 36.816406 14.28125 36.703125 13.867188 36.488281 13.433594 C 36.296875 13.042969 36.132812 12.8125 35.84375 12.535156 C 35.507812 12.210938 35.164062 12.023438 34.710938 11.914062 L 34.550781 11.875 L 23.980469 11.871094 C 18.167969 11.871094 13.398438 11.875 13.375 11.878906 Z M 34.441406 12.433594 C 34.710938 12.460938 34.988281 12.566406 35.226562 12.730469 C 35.378906 12.832031 35.652344 13.109375 35.773438 13.28125 C 35.882812 13.441406 36.066406 13.796875 36.132812 13.984375 C 36.347656 14.617188 36.378906 15.3125 36.21875 15.972656 C 35.996094 16.890625 35.425781 17.558594 34.695312 17.761719 L 34.550781 17.804688 L 24.304688 17.808594 C 16.085938 17.8125 14.058594 17.808594 14.070312 17.792969 C 14.566406 17.15625 14.875 16.53125 15.007812 15.886719 C 15.105469 15.410156 15.105469 14.863281 15.007812 14.378906 C 14.882812 13.757812 14.574219 13.089844 14.160156 12.546875 C 14.113281 12.488281 14.074219 12.433594 14.074219 12.429688 C 14.074219 12.414062 34.285156 12.417969 34.441406 12.433594 Z M 34.441406 12.433594 " fill-opacity="1" fill-rule="nonzero"/><g clip-path="url(#34659631b9)"><path fill="#ff751f" d="M 12.925781 19.824219 C 11.703125 19.921875 10.589844 20.730469 10.078125 21.886719 C 9.859375 22.382812 9.757812 22.855469 9.757812 23.40625 C 9.757812 24.046875 9.878906 24.574219 10.15625 25.121094 C 10.554688 25.917969 11.265625 26.546875 12.078125 26.824219 C 12.28125 26.894531 12.511719 26.949219 12.722656 26.980469 C 12.863281 27 14.175781 27.003906 25.4375 27.003906 C 37.101562 27.003906 38.003906 27 38.050781 26.976562 C 38.109375 26.949219 38.167969 26.867188 38.1875 26.792969 C 38.210938 26.679688 38.152344 26.554688 38.046875 26.496094 C 38.007812 26.472656 37.09375 26.472656 25.445312 26.464844 L 12.886719 26.457031 L 12.734375 26.425781 C 12.035156 26.285156 11.511719 25.992188 11.082031 25.503906 C 10.15625 24.460938 10.046875 22.839844 10.824219 21.675781 C 11.128906 21.222656 11.503906 20.886719 11.960938 20.660156 C 12.226562 20.527344 12.449219 20.453125 12.765625 20.390625 C 12.878906 20.371094 13.628906 20.367188 21.929688 20.359375 L 30.96875 20.351562 L 31.019531 20.316406 C 31.109375 20.257812 31.140625 20.195312 31.140625 20.082031 C 31.140625 19.972656 31.109375 19.910156 31.019531 19.847656 L 30.96875 19.8125 L 22.015625 19.8125 C 17.089844 19.8125 13 19.816406 12.925781 19.824219 Z M 12.925781 19.824219 " fill-opacity="1" fill-rule="nonzero"/></g><g clip-path="url(#77ec03cd36)"><path fill="#ff751f" d="M 33.152344 19.828125 C 32.949219 19.902344 32.917969 20.191406 33.105469 20.3125 L 33.164062 20.351562 L 35.554688 20.355469 C 37.273438 20.359375 37.957031 20.355469 38 20.34375 C 38.085938 20.320312 38.164062 20.234375 38.183594 20.148438 C 38.214844 20 38.132812 19.859375 38 19.824219 C 37.960938 19.8125 37.210938 19.804688 35.578125 19.804688 C 33.605469 19.808594 33.203125 19.8125 33.152344 19.828125 Z M 33.152344 19.828125 " fill-opacity="1" fill-rule="nonzero"/></g><g clip-path="url(#cdc2d4b704)"><path fill="#ff751f" d="M 13.464844 20.820312 C 13.195312 20.847656 13.082031 20.871094 12.851562 20.945312 C 12.160156 21.167969 11.570312 21.726562 11.289062 22.421875 C 11.136719 22.796875 11.078125 23.152344 11.105469 23.558594 C 11.121094 23.808594 11.148438 23.976562 11.199219 24.160156 C 11.4375 24.976562 12.035156 25.609375 12.832031 25.875 C 13.027344 25.941406 13.210938 25.976562 13.433594 25.996094 C 13.566406 26.007812 16.980469 26.011719 25.796875 26.007812 L 37.972656 26.003906 L 38.042969 25.972656 C 38.179688 25.902344 38.234375 25.726562 38.15625 25.597656 C 38.140625 25.566406 38.066406 25.488281 37.996094 25.429688 C 37.835938 25.296875 37.554688 25.011719 37.429688 24.859375 C 37.167969 24.535156 36.992188 24.203125 36.90625 23.863281 C 36.855469 23.648438 36.84375 23.269531 36.886719 23.0625 C 36.929688 22.855469 36.980469 22.710938 37.078125 22.507812 C 37.269531 22.117188 37.589844 21.722656 37.976562 21.398438 C 38.066406 21.324219 38.148438 21.246094 38.15625 21.230469 C 38.214844 21.121094 38.199219 20.984375 38.113281 20.902344 C 38.082031 20.871094 38.03125 20.835938 38 20.828125 C 37.957031 20.816406 35.054688 20.8125 25.730469 20.816406 C 19.011719 20.816406 13.492188 20.820312 13.464844 20.820312 Z M 37.195312 21.371094 C 37.195312 21.375 37.144531 21.4375 37.085938 21.507812 C 36.707031 21.949219 36.457031 22.433594 36.347656 22.9375 C 36.316406 23.074219 36.3125 23.128906 36.316406 23.417969 C 36.316406 23.703125 36.320312 23.765625 36.347656 23.898438 C 36.457031 24.398438 36.707031 24.875 37.089844 25.308594 C 37.148438 25.375 37.195312 25.429688 37.195312 25.4375 C 37.195312 25.441406 31.816406 25.441406 25.246094 25.441406 L 13.296875 25.4375 L 13.15625 25.398438 C 12.285156 25.15625 11.730469 24.476562 11.65625 23.558594 C 11.582031 22.65625 12.121094 21.804688 12.964844 21.488281 C 13.078125 21.445312 13.21875 21.410156 13.382812 21.386719 C 13.488281 21.371094 15.800781 21.367188 25.355469 21.367188 C 31.867188 21.363281 37.195312 21.367188 37.195312 21.371094 Z M 37.195312 21.371094 " fill-opacity="1" fill-rule="nonzero"/></g><g transform="matrix(1, 0, 0, 1, 3, 27)"><g clip-path="url(#9ef1922807)"><g clip-path="url(#a203a423e6)"><g fill="#ff751f" fill-opacity="1"><g transform="translate(0.09741, 7.876173)"><g><path d="M 1.59375 -4.140625 C 1.59375 -3.984375 1.632812 -3.835938 1.71875 -3.703125 C 1.8125 -3.566406 1.921875 -3.445312 2.046875 -3.34375 C 2.179688 -3.238281 2.363281 -3.113281 2.59375 -2.96875 C 2.863281 -2.789062 3.078125 -2.632812 3.234375 -2.5 C 3.398438 -2.363281 3.539062 -2.203125 3.65625 -2.015625 C 3.769531 -1.828125 3.828125 -1.617188 3.828125 -1.390625 C 3.828125 -1.128906 3.753906 -0.882812 3.609375 -0.65625 C 3.472656 -0.425781 3.257812 -0.238281 2.96875 -0.09375 C 2.6875 0.0390625 2.347656 0.109375 1.953125 0.109375 C 1.085938 0.109375 0.476562 -0.234375 0.125 -0.921875 L 0.953125 -1.546875 C 1.179688 -1.066406 1.441406 -0.597656 1.734375 -0.140625 L 1.75 -0.140625 C 1.882812 -0.140625 2.015625 -0.175781 2.140625 -0.25 C 2.265625 -0.332031 2.363281 -0.429688 2.4375 -0.546875 C 2.507812 -0.671875 2.546875 -0.804688 2.546875 -0.953125 C 2.546875 -1.097656 2.5 -1.226562 2.40625 -1.34375 C 2.320312 -1.46875 2.21875 -1.578125 2.09375 -1.671875 C 1.96875 -1.773438 1.796875 -1.894531 1.578125 -2.03125 C 1.316406 -2.195312 1.101562 -2.34375 0.9375 -2.46875 C 0.78125 -2.59375 0.644531 -2.742188 0.53125 -2.921875 C 0.414062 -3.109375 0.359375 -3.320312 0.359375 -3.5625 C 0.359375 -3.832031 0.429688 -4.078125 0.578125 -4.296875 C 0.734375 -4.523438 0.953125 -4.703125 1.234375 -4.828125 C 1.523438 -4.953125 1.863281 -5.015625 2.25 -5.015625 C 2.625 -5.015625 2.929688 -4.953125 3.171875 -4.828125 C 3.421875 -4.710938 3.640625 -4.546875 3.828125 -4.328125 L 3.0625 -3.546875 C 2.800781 -3.984375 2.539062 -4.390625 2.28125 -4.765625 C 2.0625 -4.765625 1.890625 -4.703125 1.765625 -4.578125 C 1.648438 -4.460938 1.59375 -4.316406 1.59375 -4.140625 Z M 1.59375 -4.140625 "/></g></g></g></g><g fill="#ff751f" fill-opacity="1"><g transform="translate(4.139337, 7.876173)"><g><path d="M 4.96875 -0.25 L 4.96875 0 L 2.765625 0 L 2.765625 -0.25 L 3.125 -0.265625 L 2.78125 -1.46875 L 1.53125 -1.46875 L 1.296875 -0.265625 L 1.671875 -0.25 L 1.671875 0 L 0.015625 0 L 0.015625 -0.25 L 0.375 -0.265625 L 2.015625 -4.84375 L 2.921875 -4.96875 L 4.609375 -0.265625 Z M 2.703125 -1.734375 L 2.0625 -4.03125 L 1.59375 -1.734375 Z M 2.703125 -1.734375 "/></g></g></g><g fill="#ff751f" fill-opacity="1"><g transform="translate(9.054204, 7.876173)"><g><path d="M 3.078125 -0.734375 C 3.285156 -0.734375 3.488281 -0.773438 3.6875 -0.859375 C 3.894531 -0.953125 4.082031 -1.082031 4.25 -1.25 L 4.4375 -1.03125 C 3.84375 -0.269531 3.15625 0.109375 2.375 0.109375 C 1.925781 0.109375 1.535156 0.0078125 1.203125 -0.1875 C 0.878906 -0.382812 0.625 -0.664062 0.4375 -1.03125 C 0.257812 -1.40625 0.171875 -1.835938 0.171875 -2.328125 C 0.171875 -2.753906 0.253906 -3.164062 0.421875 -3.5625 C 0.585938 -3.957031 0.796875 -4.273438 1.046875 -4.515625 C 1.296875 -4.679688 1.5625 -4.804688 1.84375 -4.890625 C 2.132812 -4.972656 2.421875 -5.015625 2.703125 -5.015625 C 3.066406 -5.015625 3.40625 -4.9375 3.71875 -4.78125 C 4.03125 -4.625 4.273438 -4.40625 4.453125 -4.125 L 3.546875 -3.359375 C 3.296875 -3.804688 2.992188 -4.296875 2.640625 -4.828125 C 2.421875 -4.734375 2.222656 -4.578125 2.046875 -4.359375 C 1.867188 -4.148438 1.726562 -3.894531 1.625 -3.59375 C 1.53125 -3.300781 1.484375 -2.992188 1.484375 -2.671875 C 1.484375 -2.054688 1.617188 -1.578125 1.890625 -1.234375 C 2.171875 -0.898438 2.566406 -0.734375 3.078125 -0.734375 Z M 3.078125 -0.734375 "/></g></g></g><g fill="#ff751f" fill-opacity="1"><g transform="translate(13.528935, 7.876173)"><g><path d="M 4.8125 -4.640625 L 4.8125 -0.265625 L 5.171875 -0.25 L 5.171875 0 L 3.234375 0 L 3.234375 -0.25 L 3.59375 -0.265625 L 3.59375 -2.296875 L 1.953125 -2.296875 L 1.953125 -0.265625 L 2.3125 -0.25 L 2.3125 0 L 0.375 0 L 0.375 -0.25 L 0.734375 -0.265625 L 0.734375 -4.640625 L 0.375 -4.65625 L 0.375 -4.90625 L 2.3125 -4.90625 L 2.3125 -4.65625 L 1.953125 -4.640625 L 1.953125 -2.578125 L 3.59375 -2.578125 L 3.59375 -4.640625 L 3.234375 -4.65625 L 3.234375 -4.90625 L 5.171875 -4.90625 L 5.171875 -4.65625 Z M 4.8125 -4.640625 "/></g></g></g><g fill="#ff751f" fill-opacity="1"><g transform="translate(18.854597, 7.876173)"><g><path d="M 0.265625 -0.25 L 0.625 -0.265625 L 0.625 -4.640625 L 0.265625 -4.65625 L 0.265625 -4.90625 L 2.203125 -4.90625 L 2.203125 -4.65625 L 1.84375 -4.640625 L 1.84375 -0.265625 L 2.203125 -0.25 L 2.203125 0 L 0.265625 0 Z M 0.265625 -0.25 "/></g></g></g><g fill="#ff751f" fill-opacity="1"><g transform="translate(21.319367, 7.876173)"><g><path d="M 5.125 -4.90625 L 5.125 -4.65625 L 4.765625 -4.640625 L 4.578125 0 L 3.6875 0 L 1.046875 -4.15625 L 1.328125 -0.265625 L 1.765625 -0.25 L 1.765625 0 L 0.265625 0 L 0.265625 -0.25 L 0.625 -0.265625 L 0.75 -4.640625 L 0.390625 -4.65625 L 0.390625 -4.90625 L 2.203125 -4.90625 L 4.328125 -1.609375 L 4.140625 -4.640625 L 3.703125 -4.65625 L 3.703125 -4.90625 Z M 5.125 -4.90625 "/></g></g></g><g fill="#ff751f" fill-opacity="1"><g transform="translate(26.718385, 7.876173)"><g><path d="M 4.34375 -4.90625 L 4.34375 -3.484375 L 4.046875 -3.5 L 4.03125 -3.859375 C 3.53125 -4.222656 3.113281 -4.488281 2.78125 -4.65625 L 2.78125 -0.265625 L 3.359375 -0.25 L 3.359375 0 L 0.984375 0 L 0.984375 -0.25 L 1.5625 -0.265625 L 1.5625 -4.65625 C 1.226562 -4.488281 0.8125 -4.222656 0.3125 -3.859375 L 0.296875 -3.5 L 0.015625 -3.484375 L 0.015625 -4.90625 Z M 4.34375 -4.90625 "/></g></g></g><g fill="#ff751f" fill-opacity="1"><g transform="translate(31.075745, 7.876173)"><g><path d="M 4.8125 -4.640625 L 4.8125 -0.265625 L 5.171875 -0.25 L 5.171875 0 L 3.234375 0 L 3.234375 -0.25 L 3.59375 -0.265625 L 3.59375 -2.296875 L 1.953125 -2.296875 L 1.953125 -0.265625 L 2.3125 -0.25 L 2.3125 0 L 0.375 0 L 0.375 -0.25 L 0.734375 -0.265625 L 0.734375 -4.640625 L 0.375 -4.65625 L 0.375 -4.90625 L 2.3125 -4.90625 L 2.3125 -4.65625 L 1.953125 -4.640625 L 1.953125 -2.578125 L 3.59375 -2.578125 L 3.59375 -4.640625 L 3.234375 -4.65625 L 3.234375 -4.90625 L 5.171875 -4.90625 L 5.171875 -4.65625 Z M 4.8125 -4.640625 "/></g></g></g><g clip-path="url(#72c7735482)"><g fill="#ff751f" fill-opacity="1"><g transform="translate(36.401409, 7.876173)"><g><path d="M 4.96875 -0.25 L 4.96875 0 L 2.765625 0 L 2.765625 -0.25 L 3.125 -0.265625 L 2.78125 -1.46875 L 1.53125 -1.46875 L 1.296875 -0.265625 L 1.671875 -0.25 L 1.671875 0 L 0.015625 0 L 0.015625 -0.25 L 0.375 -0.265625 L 2.015625 -4.84375 L 2.921875 -4.96875 L 4.609375 -0.265625 Z M 2.703125 -1.734375 L 2.0625 -4.03125 L 1.59375 -1.734375 Z M 2.703125 -1.734375 "/></g></g></g></g></g></g><g transform="matrix(1, 0, 0, 1, 3, 39)"><g clip-path="url(#1f5781be9d)"><g clip-path="url(#c1f46cedff)"><g fill="#ff751f" fill-opacity="1"><g transform="translate(0.09741, 3.77029)"><g><path d="M 2.25 -1.703125 C 2.40625 -1.628906 2.523438 -1.519531 2.609375 -1.375 C 2.703125 -1.238281 2.75 -1.082031 2.75 -0.90625 C 2.75 -0.726562 2.703125 -0.570312 2.609375 -0.4375 C 2.523438 -0.300781 2.40625 -0.191406 2.25 -0.109375 C 2.101562 -0.0351562 1.9375 0 1.75 0 L 0.453125 0 L 0.453125 -3.265625 L 1.734375 -3.265625 C 1.910156 -3.265625 2.066406 -3.226562 2.203125 -3.15625 C 2.347656 -3.082031 2.457031 -2.984375 2.53125 -2.859375 C 2.613281 -2.734375 2.65625 -2.59375 2.65625 -2.4375 C 2.65625 -2.289062 2.617188 -2.144531 2.546875 -2 C 2.472656 -1.863281 2.375 -1.765625 2.25 -1.703125 Z M 2.25 -2.375 C 2.25 -2.519531 2.195312 -2.640625 2.09375 -2.734375 C 1.988281 -2.828125 1.867188 -2.875 1.734375 -2.875 L 0.84375 -2.875 L 0.84375 -1.890625 L 1.734375 -1.890625 C 1.878906 -1.890625 2 -1.9375 2.09375 -2.03125 C 2.195312 -2.125 2.25 -2.238281 2.25 -2.375 Z M 1.75 -0.40625 C 1.914062 -0.40625 2.050781 -0.453125 2.15625 -0.546875 C 2.269531 -0.648438 2.328125 -0.785156 2.328125 -0.953125 C 2.328125 -1.097656 2.269531 -1.222656 2.15625 -1.328125 C 2.050781 -1.429688 1.914062 -1.484375 1.75 -1.484375 L 0.84375 -1.484375 L 0.84375 -0.40625 Z M 1.75 -0.40625 "/></g></g></g></g><g clip-path="url(#c230c9780c)"><g fill="#ff751f" fill-opacity="1"><g transform="translate(4.790621, 3.77029)"><g><path d="M 1.9375 0.0625 C 1.6875 0.0625 1.457031 0.0195312 1.25 -0.0625 C 1.039062 -0.15625 0.859375 -0.273438 0.703125 -0.421875 C 0.546875 -0.578125 0.425781 -0.753906 0.34375 -0.953125 C 0.257812 -1.160156 0.21875 -1.390625 0.21875 -1.640625 C 0.21875 -1.878906 0.257812 -2.097656 0.34375 -2.296875 C 0.425781 -2.503906 0.546875 -2.679688 0.703125 -2.828125 C 0.859375 -2.984375 1.039062 -3.101562 1.25 -3.1875 C 1.457031 -3.28125 1.6875 -3.328125 1.9375 -3.328125 C 2.1875 -3.328125 2.414062 -3.28125 2.625 -3.1875 C 2.832031 -3.101562 3.007812 -2.984375 3.15625 -2.828125 C 3.3125 -2.679688 3.429688 -2.503906 3.515625 -2.296875 C 3.609375 -2.097656 3.65625 -1.878906 3.65625 -1.640625 C 3.65625 -1.390625 3.609375 -1.160156 3.515625 -0.953125 C 3.429688 -0.753906 3.3125 -0.578125 3.15625 -0.421875 C 3.007812 -0.273438 2.832031 -0.15625 2.625 -0.0625 C 2.414062 0.0195312 2.1875 0.0625 1.9375 0.0625 Z M 1.9375 -0.34375 C 2.1875 -0.34375 2.40625 -0.398438 2.59375 -0.515625 C 2.789062 -0.628906 2.945312 -0.78125 3.0625 -0.96875 C 3.175781 -1.164062 3.234375 -1.390625 3.234375 -1.640625 C 3.234375 -1.878906 3.175781 -2.097656 3.0625 -2.296875 C 2.945312 -2.492188 2.789062 -2.644531 2.59375 -2.75 C 2.40625 -2.863281 2.1875 -2.921875 1.9375 -2.921875 C 1.6875 -2.921875 1.460938 -2.863281 1.265625 -2.75 C 1.078125 -2.632812 0.925781 -2.476562 0.8125 -2.28125 C 0.695312 -2.09375 0.640625 -1.878906 0.640625 -1.640625 C 0.640625 -1.390625 0.695312 -1.164062 0.8125 -0.96875 C 0.925781 -0.78125 1.078125 -0.628906 1.265625 -0.515625 C 1.460938 -0.398438 1.6875 -0.34375 1.9375 -0.34375 Z M 1.9375 -0.34375 "/></g></g></g></g><g clip-path="url(#ffb0a9ca92)"><g fill="#ff751f" fill-opacity="1"><g transform="translate(10.343034, 3.77029)"><g><path d="M 1.9375 0.0625 C 1.6875 0.0625 1.457031 0.0195312 1.25 -0.0625 C 1.039062 -0.15625 0.859375 -0.273438 0.703125 -0.421875 C 0.546875 -0.578125 0.425781 -0.753906 0.34375 -0.953125 C 0.257812 -1.160156 0.21875 -1.390625 0.21875 -1.640625 C 0.21875 -1.878906 0.257812 -2.097656 0.34375 -2.296875 C 0.425781 -2.503906 0.546875 -2.679688 0.703125 -2.828125 C 0.859375 -2.984375 1.039062 -3.101562 1.25 -3.1875 C 1.457031 -3.28125 1.6875 -3.328125 1.9375 -3.328125 C 2.1875 -3.328125 2.414062 -3.28125 2.625 -3.1875 C 2.832031 -3.101562 3.007812 -2.984375 3.15625 -2.828125 C 3.3125 -2.679688 3.429688 -2.503906 3.515625 -2.296875 C 3.609375 -2.097656 3.65625 -1.878906 3.65625 -1.640625 C 3.65625 -1.390625 3.609375 -1.160156 3.515625 -0.953125 C 3.429688 -0.753906 3.3125 -0.578125 3.15625 -0.421875 C 3.007812 -0.273438 2.832031 -0.15625 2.625 -0.0625 C 2.414062 0.0195312 2.1875 0.0625 1.9375 0.0625 Z M 1.9375 -0.34375 C 2.1875 -0.34375 2.40625 -0.398438 2.59375 -0.515625 C 2.789062 -0.628906 2.945312 -0.78125 3.0625 -0.96875 C 3.175781 -1.164062 3.234375 -1.390625 3.234375 -1.640625 C 3.234375 -1.878906 3.175781 -2.097656 3.0625 -2.296875 C 2.945312 -2.492188 2.789062 -2.644531 2.59375 -2.75 C 2.40625 -2.863281 2.1875 -2.921875 1.9375 -2.921875 C 1.6875 -2.921875 1.460938 -2.863281 1.265625 -2.75 C 1.078125 -2.632812 0.925781 -2.476562 0.8125 -2.28125 C 0.695312 -2.09375 0.640625 -1.878906 0.640625 -1.640625 C 0.640625 -1.390625 0.695312 -1.164062 0.8125 -0.96875 C 0.925781 -0.78125 1.078125 -0.628906 1.265625 -0.515625 C 1.460938 -0.398438 1.6875 -0.34375 1.9375 -0.34375 Z M 1.9375 -0.34375 "/></g></g></g></g><g clip-path="url(#6b2e1db521)"><g fill="#ff751f" fill-opacity="1"><g transform="translate(15.895447, 3.77029)"><g><path d="M 2.4375 0 L 1.296875 -1.5 L 0.859375 -1.5 L 0.859375 0 L 0.453125 0 L 0.453125 -3.265625 L 0.859375 -3.265625 L 0.859375 -1.875 L 1.296875 -1.875 L 2.328125 -3.265625 L 2.859375 -3.265625 L 1.65625 -1.703125 L 2.96875 0 Z M 2.4375 0 "/></g></g></g></g><g fill="#ff751f" fill-opacity="1"><g transform="translate(20.541964, 3.77029)"><g/></g></g><g clip-path="url(#3ca5b87d3e)"><g fill="#ff751f" fill-opacity="1"><g transform="translate(23.446731, 3.77029)"><g><path d="M 1.421875 0.046875 C 1.179688 0.046875 0.96875 0.00390625 0.78125 -0.078125 C 0.601562 -0.171875 0.460938 -0.296875 0.359375 -0.453125 C 0.265625 -0.609375 0.21875 -0.796875 0.21875 -1.015625 L 0.625 -1.015625 C 0.625 -0.804688 0.695312 -0.644531 0.84375 -0.53125 C 1 -0.414062 1.191406 -0.359375 1.421875 -0.359375 C 1.554688 -0.359375 1.675781 -0.378906 1.78125 -0.421875 C 1.894531 -0.472656 1.984375 -0.539062 2.046875 -0.625 C 2.117188 -0.707031 2.15625 -0.804688 2.15625 -0.921875 C 2.15625 -1.046875 2.113281 -1.144531 2.03125 -1.21875 C 1.957031 -1.289062 1.859375 -1.347656 1.734375 -1.390625 C 1.609375 -1.429688 1.476562 -1.46875 1.34375 -1.5 C 1.21875 -1.53125 1.09375 -1.5625 0.96875 -1.59375 C 0.84375 -1.632812 0.726562 -1.6875 0.625 -1.75 C 0.519531 -1.8125 0.4375 -1.894531 0.375 -2 C 0.3125 -2.101562 0.28125 -2.238281 0.28125 -2.40625 C 0.28125 -2.6875 0.378906 -2.90625 0.578125 -3.0625 C 0.785156 -3.226562 1.054688 -3.3125 1.390625 -3.3125 C 1.722656 -3.3125 1.988281 -3.222656 2.1875 -3.046875 C 2.382812 -2.878906 2.484375 -2.644531 2.484375 -2.34375 L 2.078125 -2.34375 C 2.078125 -2.519531 2.007812 -2.660156 1.875 -2.765625 C 1.75 -2.867188 1.585938 -2.921875 1.390625 -2.921875 C 1.179688 -2.921875 1.007812 -2.875 0.875 -2.78125 C 0.75 -2.695312 0.6875 -2.578125 0.6875 -2.421875 C 0.6875 -2.296875 0.722656 -2.195312 0.796875 -2.125 C 0.867188 -2.0625 0.960938 -2.007812 1.078125 -1.96875 C 1.203125 -1.9375 1.335938 -1.90625 1.484375 -1.875 C 1.609375 -1.84375 1.734375 -1.804688 1.859375 -1.765625 C 1.992188 -1.722656 2.113281 -1.671875 2.21875 -1.609375 C 2.320312 -1.546875 2.40625 -1.457031 2.46875 -1.34375 C 2.539062 -1.238281 2.578125 -1.101562 2.578125 -0.9375 C 2.578125 -0.726562 2.523438 -0.550781 2.421875 -0.40625 C 2.316406 -0.257812 2.175781 -0.144531 2 -0.0625 C 1.832031 0.0078125 1.640625 0.046875 1.421875 0.046875 Z M 1.421875 0.046875 "/></g></g></g></g><g clip-path="url(#5363193c52)"><g fill="#ff751f" fill-opacity="1"><g transform="translate(27.915804, 3.77029)"><g><path d="M 2.546875 -3.265625 L 2.953125 -3.265625 L 2.953125 0 L 2.546875 0 L 2.546875 -1.484375 L 0.859375 -1.484375 L 0.859375 0 L 0.453125 0 L 0.453125 -3.265625 L 0.859375 -3.265625 L 0.859375 -1.875 L 2.546875 -1.875 Z M 2.546875 -3.265625 "/></g></g></g></g><g clip-path="url(#48fec70a33)"><g fill="#ff751f" fill-opacity="1"><g transform="translate(33.001259, 3.77029)"><g><path d="M 1.9375 0.0625 C 1.6875 0.0625 1.457031 0.0195312 1.25 -0.0625 C 1.039062 -0.15625 0.859375 -0.273438 0.703125 -0.421875 C 0.546875 -0.578125 0.425781 -0.753906 0.34375 -0.953125 C 0.257812 -1.160156 0.21875 -1.390625 0.21875 -1.640625 C 0.21875 -1.878906 0.257812 -2.097656 0.34375 -2.296875 C 0.425781 -2.503906 0.546875 -2.679688 0.703125 -2.828125 C 0.859375 -2.984375 1.039062 -3.101562 1.25 -3.1875 C 1.457031 -3.28125 1.6875 -3.328125 1.9375 -3.328125 C 2.1875 -3.328125 2.414062 -3.28125 2.625 -3.1875 C 2.832031 -3.101562 3.007812 -2.984375 3.15625 -2.828125 C 3.3125 -2.679688 3.429688 -2.503906 3.515625 -2.296875 C 3.609375 -2.097656 3.65625 -1.878906 3.65625 -1.640625 C 3.65625 -1.390625 3.609375 -1.160156 3.515625 -0.953125 C 3.429688 -0.753906 3.3125 -0.578125 3.15625 -0.421875 C 3.007812 -0.273438 2.832031 -0.15625 2.625 -0.0625 C 2.414062 0.0195312 2.1875 0.0625 1.9375 0.0625 Z M 1.9375 -0.34375 C 2.1875 -0.34375 2.40625 -0.398438 2.59375 -0.515625 C 2.789062 -0.628906 2.945312 -0.78125 3.0625 -0.96875 C 3.175781 -1.164062 3.234375 -1.390625 3.234375 -1.640625 C 3.234375 -1.878906 3.175781 -2.097656 3.0625 -2.296875 C 2.945312 -2.492188 2.789062 -2.644531 2.59375 -2.75 C 2.40625 -2.863281 2.1875 -2.921875 1.9375 -2.921875 C 1.6875 -2.921875 1.460938 -2.863281 1.265625 -2.75 C 1.078125 -2.632812 0.925781 -2.476562 0.8125 -2.28125 C 0.695312 -2.09375 0.640625 -1.878906 0.640625 -1.640625 C 0.640625 -1.390625 0.695312 -1.164062 0.8125 -0.96875 C 0.925781 -0.78125 1.078125 -0.628906 1.265625 -0.515625 C 1.460938 -0.398438 1.6875 -0.34375 1.9375 -0.34375 Z M 1.9375 -0.34375 "/></g></g></g></g><g clip-path="url(#19a32885ea)"><g fill="#ff751f" fill-opacity="1"><g transform="translate(38.553672, 3.77029)"><g><path d="M 1.625 -3.265625 C 1.820312 -3.265625 2.003906 -3.21875 2.171875 -3.125 C 2.335938 -3.039062 2.46875 -2.914062 2.5625 -2.75 C 2.65625 -2.59375 2.703125 -2.414062 2.703125 -2.21875 C 2.703125 -2.019531 2.65625 -1.84375 2.5625 -1.6875 C 2.46875 -1.53125 2.335938 -1.40625 2.171875 -1.3125 C 2.003906 -1.21875 1.820312 -1.171875 1.625 -1.171875 L 0.859375 -1.171875 L 0.859375 0 L 0.453125 0 L 0.453125 -3.265625 Z M 1.59375 -1.578125 C 1.789062 -1.578125 1.953125 -1.632812 2.078125 -1.75 C 2.210938 -1.875 2.28125 -2.03125 2.28125 -2.21875 C 2.28125 -2.40625 2.210938 -2.5625 2.078125 -2.6875 C 1.953125 -2.8125 1.789062 -2.875 1.59375 -2.875 L 0.859375 -2.875 L 0.859375 -1.578125 Z M 1.59375 -1.578125 "/></g></g></g></g></g></g><path stroke-linecap="butt" transform="matrix(0.734694, 0.000000000000000089, -0.000000000000000089, 0.734694, 2.460401, 36.755587)" fill="none" stroke-linejoin="miter" d="M 0.000730232 0.497495 L 58.369005 0.497495 " stroke="#ff751f" stroke-width="1" stroke-opacity="1" stroke-miterlimit="4"/></svg>